<svg width="671" height="649" viewBox="0 0 671 649" fill="none" xmlns="http://www.w3.org/2000/svg">
<g clip-path="url(#clip0_866_245)">
<path d="M338.128 51.3009V48.9081C338.128 19.4846 312.29 -3.41785 283.141 0.421143C215.904 9.30867 153.609 34.4725 103.825 73.4409C36.8777 125.819 0 196.63 0 272.858V500.016C0 526.994 21.869 548.871 48.8373 548.871H284.034C311.003 548.871 332.872 570.748 332.872 597.726V600.119C332.872 629.543 358.71 652.445 387.859 648.606C455.096 639.719 517.391 614.555 567.175 575.586C634.122 523.208 671 452.397 671 376.169V149.011C671 122.033 649.131 100.156 622.163 100.156H386.966C359.997 100.156 338.128 78.2791 338.128 51.3009ZM565.861 376.169C565.861 419.318 543.334 460.706 502.409 492.732C472.865 515.845 436.592 532.069 396.744 540.431C366.49 546.768 338.128 523.444 338.128 492.548C338.128 465.57 316.259 443.693 289.291 443.693H153.977C127.008 443.693 105.139 421.816 105.139 394.838V272.858C105.139 229.709 127.666 188.321 168.591 156.295C198.135 133.182 234.408 116.958 274.256 108.597C304.51 102.26 332.872 125.583 332.872 156.479C332.872 183.457 354.741 205.334 381.709 205.334H517.023C543.992 205.334 565.861 227.211 565.861 254.189V376.169Z" fill="#CDFF00"/>
</g>
<defs>
<clipPath id="clip0_866_245">
<rect width="671" height="649" fill="white"/>
</clipPath>
</defs>
</svg>
